<?xml version="1.0" encoding="UTF-8"?>
<svg version="1.1" xmlns="http://www.w3.org/2000/svg" width="1920" height="1920">
<path d="M0 0 C4.81737543 4.2392641 8.05985895 9.63000151 11.48046875 15.00585938 C15.45313909 20.86262705 18.71834663 22.80913299 25.55078125 24.375 C31.18111016 26.46579465 35.82314397 28.47581958 39.55078125 33.375 C40.23000219 35.07033548 40.87338462 36.78028909 41.48828125 38.5 C42.83908907 42.18054115 43.20761468 43.13907298 46.55078125 45.4375 C48.03578125 45.9015625 48.03578125 45.9015625 49.55078125 46.375 C50.16953125 46.601875 50.78828125 46.82875 51.42578125 47.0625 C57.61318722 47.97241264 63.23380887 47.23506696 69.23828125 45.6875 C69.97119385 45.51250977 70.70410645 45.33751953 71.45922852 45.15722656 C75.38755047 44.2121532 79.26371758 43.17292034 83.12890625 41.99609375 C104.64522025 35.74245347 127.92211006 37.2336064 149.89550781 40.29785156 C161.69176375 41.91511163 173.34560777 41.79165491 185.20768738 41.00843811 C195.28660271 40.35319541 205.33689471 40.18881334 215.43579102 40.18969727 C218.24575604 40.18749414 221.05533733 40.16919981 223.86523438 40.15039062 C237.16800698 40.10731284 249.98539605 40.62904254 262.67578125 45.0625 C263.43221924 45.32232666 264.18865723 45.58215332 264.96801758 45.84985352 C279.30420373 50.97895125 288.78134555 57.84721816 295.38671875 71.60546875 C297.7886557 77.32014425 297.76743652 82.55623786 297.80078125 88.6875 C297.83171875 90.04584961 297.83171875 90.04584961 297.86328125 91.43164062 C297.94443648 106.00914879 293.41593838 120.36953654 289.87939453 134.42089844 C285.06008527 153.41232103 285.06008527 153.41232103 290.88671875 171.7890625 C298.59025487 182.85556362 312.0726868 189.36371732 323.4152832 196.03857422 C329.6054614 199.71367568 335.11914017 203.63771304 340.55078125 208.375 C342.12859375 209.550625 342.12859375 209.550625 343.73828125 210.75 C350.72472808 217.27068371 355.37987182 224.71585603 355.8515625 234.42578125 C355.87086699 235.84622837 355.87436036 237.26696492 355.86328125 238.6875 C355.8583667 239.43443115 355.85345215 240.1813623 355.84838867 240.95092773 C355.61123204 252.17026059 351.87450981 260.86753205 344.30078125 269.125 C337.29312732 275.82664284 328.85563524 277.48645421 319.44140625 277.54296875 C318.42160927 277.54918495 318.42160927 277.54918495 317.38121033 277.55552673 C315.18767845 277.56516702 312.99433097 277.5651907 310.80078125 277.5625 C309.68263535 277.56259064 309.68263535 277.56259064 308.54190063 277.56268311 C296.6596265 277.5489047 285.18189268 276.9981315 273.4765625 274.796875 C254.99013388 271.34146778 239.46885408 274.8392159 221.62426758 279.61889648 C217.20412235 280.70628943 212.90198777 281.50008574 208.34375 281.5078125 C207.59649658 281.50950439 206.84924316 281.51119629 206.0793457 281.51293945 C205.30679443 281.50866943 204.53424316 281.50439941 203.73828125 281.5 C202.53788208 281.50036255 202.53788208 281.50036255 201.31323242 281.50073242 C197.26486367 281.479688 193.37079607 281.31844091 189.36328125 280.6875 C184.69241281 280.30464193 182.62198037 281.20946856 178.55078125 283.375 C178.54892822 284.07890869 178.5470752 284.78281738 178.54516602 285.50805664 C178.11750616 297.41291343 175.18218866 308.71322915 172.3605957 320.23901367 C171.49879393 323.76943422 170.66127778 327.3049792 169.82617188 330.84179688 C158.28760201 378.95794213 158.28760201 378.95794213 142.55078125 397.375 C141.78765625 398.385625 141.02453125 399.39625 140.23828125 400.4375 C126.08510549 415.90725024 107.11522058 421.40681093 86.671875 422.53369141 C65.84145698 423.28725487 45.3950691 421.47035662 24.70581055 419.15380859 C-5.55892458 415.84683308 -34.97526401 414.38622258 -60.75390625 433.04296875 C-69.322529 439.99570936 -74.62136286 449.60470573 -79.44921875 459.375 C-97.73888318 459.63262726 -116.02807305 459.82625952 -134.31916332 459.94493389 C-142.81324821 460.00151604 -151.30620201 460.07857201 -159.79956055 460.20483398 C-167.20751138 460.31490728 -174.61464272 460.38554092 -182.02338868 460.40997344 C-185.94226102 460.42424412 -189.8587903 460.45746833 -193.77690697 460.53803062 C-222.08056275 461.0978733 -222.08056275 461.0978733 -229.71606445 454.02661133 C-231.35373848 452.19462169 -232.94247356 450.31610308 -234.44921875 448.375 C-235.77457654 447.17570638 -237.122674 445.99991474 -238.51171875 444.875 C-239.8276847 443.71224423 -241.13987631 442.54520927 -242.44921875 441.375 C-243.30386719 440.61316406 -244.15851563 439.85132813 -245.0390625 439.06640625 C-251.10029581 433.59095656 -256.97477714 427.9522977 -262.76171875 422.1875 C-263.74785156 421.20825562 -263.74785156 421.20825562 -264.75390625 420.20922852 C-269.1879306 415.76120787 -273.35722818 411.13768631 -277.44921875 406.375 C-278.31804688 405.38757812 -279.186875 404.40015625 -280.08203125 403.3828125 C-304.69061884 374.91707952 -326.08291547 342.32787676 -323.44921875 303.375 C-320.72238213 283.99007365 -305.9811299 271.05342886 -291.23046875 259.9375 C-271.47066518 245.29443347 -249.1747459 234.42381491 -226.69921875 224.625 C-198.21042277 212.07680155 -180.04155779 190.42032103 -168.55200195 161.76367188 C-163.44165882 148.52226032 -160.54088194 135.11159132 -157.94921875 121.1875 C-151.46890559 86.62994116 -137.19580167 47.4500589 -114.44921875 20.375 C-113.56169922 19.26705078 -113.56169922 19.26705078 -112.65625 18.13671875 C-98.35558739 0.96982525 -78.82301381 -8.78491462 -56.77661133 -11.42211914 C-37.05925088 -13.1408988 -16.16325521 -12.88469089 0 0 Z " fill="#c2b19b" transform="translate(801.44921875,1460.625)"/>
<path d="M0 0 C0.65985901 0.00304138 1.31971802 0.00608276 1.99957275 0.00921631 C12.41642668 0.08015647 21.43550311 0.92995151 31.25 4.4375 C32.42433594 4.81519531 33.59867188 5.19289063 34.80859375 5.58203125 C63.8537826 15.58614937 99.20840714 31.25957677 114.5625 59.4375 C120.99293646 73.64161965 120.47888862 88.21739823 116.90625 103.0703125 C116.06934176 107.36444883 115.4369583 111.44482191 117.125 115.58203125 C117.49625 116.13246094 117.8675 116.68289063 118.25 117.25 C120.25 120.4375 120.25 120.4375 120.25 122.4375 C134.87015697 129.83277753 148.74698971 132.09851088 164.90356445 133.45532227 C189.41035857 135.5181502 211.35276238 139.0343334 229.25 157.4375 C230.34441406 158.50097656 230.34441406 158.50097656 231.4609375 159.5859375 C242.61336611 171.07003685 243.64174932 184.41777473 243.61962891 199.6315918 C243.31193001 219.68856285 236.35958098 236.91939364 229.35620117 255.44873047 C218.69124477 283.80605298 212.83642546 313.20699438 225.53125 341.91015625 C237.32620949 366.11662993 260.25822217 382.01178437 282.1875 396.375 C294.5527909 404.51505203 306.48460864 413.26451158 317.25 423.4375 C318.61997848 424.63078966 319.99483093 425.8185117 321.375 427 C340.33472052 443.64663462 358.72274926 467.97874677 360.4140625 493.95751953 C361.1571485 511.49125285 359.69827934 524.86664499 348.28515625 538.84375 C336.43780045 551.72802521 318.37265728 557.62559459 302.484375 563.94140625 C294.29057359 567.22510305 288.06936459 569.9190577 283.87890625 577.984375 C281.96896528 585.43433107 283.72164494 592.45848103 285.75 599.6875 C286.01337158 600.66332031 286.27674316 601.63914062 286.5480957 602.64453125 C288.10680926 608.39203459 289.72094914 614.12417413 291.32421875 619.859375 C297.01155913 640.2314676 301.48126722 659.18278098 301.5 680.4375 C301.50067474 681.12625214 301.50134949 681.81500427 301.50204468 682.52462769 C301.46215745 708.17807878 295.31775249 732.05720518 276.96875 750.75390625 C276.0715625 751.63949219 275.174375 752.52507813 274.25 753.4375 C273.4971875 754.18902344 272.744375 754.94054687 271.96875 755.71484375 C259.93096991 767.07658909 244.47387297 773.06864928 228.25 775.4375 C227.50105469 775.54835938 226.75210937 775.65921875 225.98046875 775.7734375 C196.79091841 779.35557137 165.43825495 773.60641822 141.25 756.4375 C131.55041083 748.77238891 123.30511162 739.33104885 115.625 729.6875 C108.30591945 720.66540071 98.97410815 711.71147105 86.89453125 710.12890625 C77.41112547 709.69724778 69.79222206 712.78444769 61.25 716.4375 C60.22841797 716.8715918 59.20683594 717.30568359 58.15429688 717.75292969 C56.49237305 718.4591748 56.49237305 718.4591748 54.796875 719.1796875 C53.08588623 719.9061145 53.08588623 719.9061145 51.34033203 720.6472168 C49.07752772 721.61218471 46.81791464 722.58468023 44.56201172 723.56567383 C28.0102153 730.69867993 11.83697631 734.49726127 -5.75 728.4375 C-18.24324632 723.30967502 -27.20578202 716.17925803 -32.97265625 703.81640625 C-40.10725874 686.6064153 -37.17722926 667.85067542 -30.29003906 650.9831543 C-22.37591762 632.6656386 -8.17087487 616.00943358 7.25 603.4375 C8.2684389 602.57186127 9.28664739 601.70595143 10.3046875 600.83984375 C26.19605133 587.52557918 44.34102884 577.34362379 62.02880859 566.63867188 C69.06364802 562.38032529 76.08906663 558.10848314 83.0625 553.75 C83.80201904 553.29351074 84.54153809 552.83702148 85.3034668 552.36669922 C92.14451116 548.06159366 97.9117108 543.7161207 102.125 536.6875 C102.98738281 535.27210938 102.98738281 535.27210938 103.8671875 533.828125 C106.32130116 529.58542002 107.03723206 526.31525158 106.25 521.4375 C97.61095189 497.4328167 71.46794575 484.20769888 50.84375 471.78125 C38.55149178 464.32993087 25.75641353 455.9065228 21.25 441.4375 C19.26702818 424.89220716 23.43823702 412.04609631 33.4296875 398.9296875 C37.1985198 394.16471154 41.31401917 389.73008912 45.5 385.33203125 C48.2720328 382.41430922 50.92671263 379.42476498 53.55078125 376.375 C54.79429728 374.95710586 56.06687226 373.56455302 57.35546875 372.1875 C66.52711064 362.3370619 79.07618323 348.19910135 79.28515625 334.05859375 C78.83517948 326.86994053 76.791335 321.42730588 72.125 315.9375 C64.50747351 309.31356393 56.47790395 303.31329757 48.1875 297.5625 C47.18525391 296.86705078 46.18300781 296.17160156 45.15039062 295.45507812 C37.34987882 290.09378188 29.42316449 285.09369765 21.1484375 280.50048828 C19.33219979 279.48352596 17.54076985 278.43208437 15.75 277.37109375 C7.99906422 272.89074636 0.00570953 269.77711182 -8.4375 266.8125 C-26.85038043 260.32708489 -40.74953013 253.36916595 -50.3515625 235.5234375 C-55.55721476 224.03610431 -56.81532686 212.88338023 -57.1875 200.4375 C-57.35496394 196.1031576 -57.54418859 191.77018513 -57.75 187.4375 C-57.78641602 186.65616699 -57.82283203 185.87483398 -57.86035156 185.06982422 C-58.83617219 167.91916166 -68.3200252 155.00206831 -78.18115234 141.59619141 C-79.75346167 139.43273684 -81.28285791 137.24486141 -82.80078125 135.04296875 C-89.62814592 125.1501891 -96.92742213 115.97219171 -104.921875 107 C-105.54578125 106.29875 -106.1696875 105.5975 -106.8125 104.875 C-107.33972656 104.29621094 -107.86695313 103.71742188 -108.41015625 103.12109375 C-109.75 101.4375 -109.75 101.4375 -110.68359375 99.34765625 C-112.03689397 96.923613 -113.27756918 96.63598531 -115.75 95.4375 C-125.79895708 86.04500746 -134.46582252 74.41552144 -135.0859375 60.265625 C-135.10960572 58.40635505 -135.12242106 56.5469188 -135.125 54.6875 C-135.14949219 53.74261719 -135.17398438 52.79773438 -135.19921875 51.82421875 C-135.20308594 50.91800781 -135.20695313 50.01179688 -135.2109375 49.078125 C-135.21915527 48.25860352 -135.22737305 47.43908203 -135.23583984 46.59472656 C-134.75 44.4375 -134.75 44.4375 -133.00952148 42.67285156 C-130.48232914 41.29115591 -128.9981301 41.05672852 -126.13671875 41.03125 C-124.7763147 41.00164185 -124.7763147 41.00164185 -123.38842773 40.97143555 C-122.41462158 40.96023682 -121.44081543 40.94903809 -120.4375 40.9375 C-94.6224164 40.20872428 -72.07243127 37.58607318 -52.0859375 20.2890625 C-35.9486795 6.3834532 -21.52954633 -0.17245536 0 0 Z " fill="#c2b19b" transform="translate(954.75,262.5625)"/>
<path d="M0 0 C7.3828796 5.81295692 12.34406466 12.92937459 16.625 21.1875 C17.57621281 22.96396442 18.53071605 24.73867037 19.48828125 26.51171875 C19.9673291 27.39907715 20.44637695 28.28643555 20.93994141 29.20068359 C41.27705594 66.32951821 41.27705594 66.32951821 75.65625 88.49609375 C99.00008225 94.2920795 124.49494795 79.56929592 145.25018311 70.46228027 C153.64542192 66.78384046 162.07205161 63.26358599 170.6875 60.125 C171.54529053 59.81046875 172.40308105 59.4959375 173.28686523 59.171875 C195.9718444 51.11092433 222.71529907 50.87932251 244.76708984 60.98706055 C255.00683595 65.92284828 263.81938018 72.3565053 272.375 79.8125 C273.01179688 80.36421875 273.64859375 80.9159375 274.3046875 81.484375 C288.64311859 94.8316703 297.11499595 114.62371339 298.28515625 134.03125 C298.32962891 135.40796875 298.32962891 135.40796875 298.375 136.8125 C298.41496094 137.8540625 298.45492188 138.895625 298.49609375 139.96875 C299.42512588 187.62263339 274.67391483 227.87546693 242.9296875 261.39453125 C224.96588821 280.76664233 210.33865387 308.37939055 211.02734375 335.328125 C212.30122242 348.09553816 217.74989776 359.58969346 227.6484375 367.81640625 C236.79996054 374.51616022 246.83672694 379.66536124 256.9921875 384.6484375 C275.16912031 393.58143777 291.8511762 402.5208885 306.375 416.8125 C307.055625 417.46863281 307.73625 418.12476563 308.4375 418.80078125 C320.93496012 431.82826758 323.78447741 449.21560756 323.578125 466.56640625 C322.72639584 488.79965332 315.12218735 509.80176763 308.0625 530.6875 C301.41833844 550.36297558 296.52033335 570.00429155 306.24609375 589.70703125 C306.61863281 590.40183594 306.99117187 591.09664062 307.375 591.8125 C307.73722656 592.51761719 308.09945313 593.22273438 308.47265625 593.94921875 C312.2615147 600.77379866 317.14446395 606.73156504 321.97119141 612.83422852 C325.89612922 617.82548794 329.6176203 622.8941499 333.125 628.1875 C333.53073242 628.79940186 333.93646484 629.41130371 334.35449219 630.04174805 C335.38300069 631.61806845 336.3807704 633.21433754 337.375 634.8125 C337.79265625 635.46476562 338.2103125 636.11703125 338.640625 636.7890625 C339.375 638.8125 339.375 638.8125 339.375 645.8125 C266.445 645.8125 193.515 645.8125 118.375 645.8125 C118.375 638.99375602 118.58690586 634.9093417 120.7890625 628.8671875 C121.03955353 628.14261856 121.29004456 627.41804962 121.54812622 626.67152405 C122.08075155 625.13236616 122.61898625 623.5951393 123.16247559 622.05978394 C124.57796793 618.05040858 125.9410745 614.02335341 127.3046875 609.99609375 C127.57381958 609.20302322 127.84295166 608.4099527 128.12023926 607.59284973 C130.33195016 601.03412236 132.3475536 594.44082426 134.125 587.75 C134.48392334 586.45328369 134.48392334 586.45328369 134.85009766 585.13037109 C138.68985567 570.12900704 134.60237336 557.59356125 127.0390625 544.40625 C124.15579082 539.91213639 120.88593557 535.82895489 117.375 531.8125 C116.85550781 531.20921875 116.33601563 530.6059375 115.80078125 529.984375 C94.07112551 506.55794513 59.36709795 497.41777654 29.984375 488.1015625 C6.48703723 480.58190258 -16.64568634 470.8988472 -28.625 447.8125 C-38.26535312 428.4831051 -35.70423998 399.92855819 -29.625 379.8125 C-29.25987305 378.60094238 -28.89474609 377.38938477 -28.51855469 376.14111328 C-27.00767818 371.15050499 -25.48117946 366.16468058 -23.95129395 361.17987061 C-12.68949723 324.44701697 -9.76749691 280.99205519 -27.64550781 245.60351562 C-30.16768613 240.99167611 -33.30069588 236.86684737 -36.625 232.8125 C-37.41777344 231.81476563 -38.21054688 230.81703125 -39.02734375 229.7890625 C-46.35880826 221.3881964 -56.30451631 215.69665736 -65.6875 209.875 C-74.26359788 204.53662484 -81.53925359 199.00506671 -88.625 191.8125 C-89.28113281 191.23757813 -89.93726563 190.66265625 -90.61328125 190.0703125 C-103.07819214 178.95968239 -109.38361575 159.9901453 -110.80252075 143.7850647 C-111.06842349 139.00295313 -111.05582275 134.22511367 -111 129.4375 C-110.99501495 128.71405396 -110.99002991 127.99060791 -110.9848938 127.24523926 C-110.8984971 116.53559284 -110.59506197 106.17335255 -107.625 95.8125 C-107.39393555 94.99958496 -107.16287109 94.18666992 -106.92480469 93.34912109 C-103.36697203 81.20549982 -98.80081315 69.851766 -92.625 58.8125 C-92.27179688 58.17618652 -91.91859375 57.53987305 -91.5546875 56.88427734 C-79.21262806 34.89165974 -61.91737169 14.53871446 -40.625 0.8125 C-39.74328125 0.24273438 -38.8615625 -0.32703125 -37.953125 -0.9140625 C-25.8800608 -8.45079784 -11.66167148 -8.61351115 0 0 Z " fill="#c2b19b" transform="translate(1368.625,1274.1875)"/>
<path d="M0 0 C23.34670433 18.96434953 30.27535752 45.34766895 36.24438477 73.4362793 C41.71048708 100.33274582 41.71048708 100.33274582 51.4140625 125.91015625 C51.88875977 126.89109253 51.88875977 126.89109253 52.37304688 127.8918457 C54.78216127 132.52889623 57.47237383 135.61948547 62.27734375 137.7734375 C77.36000485 138.76758654 95.42546885 122.90228702 107.07873535 115.04312134 C130.85427811 99.01063259 151.79000379 89.47383762 180.86816406 89.64941406 C182.98271083 89.66018758 185.09641522 89.64940979 187.2109375 89.63671875 C198.5691946 89.62236043 210.10752451 89.87736524 220.3515625 95.28515625 C221.01961914 95.62893311 221.68767578 95.97270996 222.37597656 96.3269043 C229.13524579 100.00786154 234.42683327 104.96333065 239.82226562 110.38427734 C251.61300889 122.14866837 264.65939034 131.89184691 278.4140625 141.22265625 C279.40696289 141.90481201 280.39986328 142.58696777 281.42285156 143.28979492 C293.801472 151.57449764 305.95751821 156.35711228 320.890625 156 C322.70702841 155.97956388 324.52343479 155.95939003 326.33984375 155.93945312 C329.15003586 155.89625319 331.96001933 155.84797578 334.77001953 155.79370117 C354.51044895 155.44088314 372.20401641 156.8051612 387.8515625 170.34765625 C405.32195779 187.33355444 410.07076783 210.50744433 415.03588867 233.49243164 C418.94574018 251.46564453 423.89102786 269.09887319 429.68701172 286.55322266 C433.21873173 297.24842129 434.71450881 306.46674383 434.7265625 317.78515625 C434.75105469 318.98785156 434.77554688 320.19054688 434.80078125 321.4296875 C434.83588291 332.20589755 432.879952 340.92920388 425.42578125 348.9609375 C410.14501741 363.32082669 388.89417283 369.11873635 369.53857422 376.33300781 C366.73044617 377.38254741 363.93816988 378.4646912 361.15283203 379.57324219 C347.1543447 385.10069 334.29919088 386.21043835 319.4140625 386.41015625 C292.32918226 386.6957965 292.32918226 386.6957965 269.3515625 399.91015625 C264.44786533 405.20676688 259.9000366 410.82080142 255.30859375 416.38671875 C244.48717032 429.21394378 229.75007314 434.84983594 213.3515625 436.91015625 C195.42151507 437.7664991 176.57925582 438.57195326 159.3515625 432.91015625 C158.60745117 432.6687793 157.86333984 432.42740234 157.09667969 432.17871094 C119.78170381 419.6669413 87.80733306 390.59707251 64.18701172 359.83691406 C60.17033427 354.61150733 55.81999423 349.75361707 51.3515625 344.91015625 C49.80860163 343.18214433 48.26693627 341.45297476 46.7265625 339.72265625 C44.22380835 336.93079084 41.69407728 334.24179529 38.9765625 331.66015625 C30.31877536 323.1018839 23.33972342 312.70228062 16.49926758 302.68408203 C14.34263635 299.55935642 12.24215054 296.67619041 9.5 294.0390625 C8.79101562 293.33652344 8.08203125 292.63398437 7.3515625 291.91015625 C7.3515625 291.25015625 7.3515625 290.59015625 7.3515625 289.91015625 C6.78566406 289.65878906 6.21976563 289.40742187 5.63671875 289.1484375 C3.03250751 287.73726662 1.03227801 286.03044326 -1.2109375 284.09765625 C-13.92630324 273.83613302 -29.27016911 270.6240272 -45.30224609 272.28979492 C-48.68448684 272.71545963 -52.06277688 273.16012145 -55.44030762 273.62106323 C-98.95349696 279.48384475 -98.95349696 279.48384475 -115.30859375 268.6953125 C-131.68434939 256.20162247 -139.18180416 237.76889939 -142.28027344 217.8984375 C-147.29518894 177.19381833 -138.83681953 145.25474597 -118.3046875 110.4375 C-109.19066828 94.96402285 -102.27367012 78.88630239 -95.57421875 62.24121094 C-89.37977336 46.89156513 -82.66653002 32.44724793 -71.6484375 19.91015625 C-70.97425781 19.09289062 -70.30007813 18.275625 -69.60546875 17.43359375 C-52.6916618 -2.46862718 -24.19514958 -17.39827894 0 0 Z " fill="#c2b19b" transform="translate(754.6484375,989.08984375)"/>
<path d="M0 0 C1.34787529 -0.00322677 2.69575025 -0.00659181 4.04362488 -0.01008606 C6.86169238 -0.01604082 9.6797294 -0.01793009 12.49780273 -0.01733398 C15.34161816 -0.01725324 18.18527073 -0.02411761 21.02905273 -0.0378418 C87.70189361 -0.35460882 87.70189361 -0.35460882 111.98046875 22.16796875 C112.47611328 22.62268555 112.97175781 23.07740234 113.48242188 23.54589844 C129.42660402 38.31799915 139.88940639 56.35012056 150.96923828 74.81884766 C178.29162827 120.31636476 216.70344694 139.69188394 263.73046875 160.98046875 C278.41958179 167.64554054 292.89319789 174.65487669 305.98046875 184.16796875 C306.78025146 184.74780518 306.78025146 184.74780518 307.59619141 185.33935547 C328.70271273 200.75794146 339.44578392 217.7570851 343.54296875 243.734375 C344.25701421 249.75172574 344.20442699 255.8040148 344.23046875 261.85546875 C344.26140625 263.67014648 344.26140625 263.67014648 344.29296875 265.52148438 C344.298125 266.68744141 344.30328125 267.85339844 344.30859375 269.0546875 C344.31793945 270.10873779 344.32728516 271.16278809 344.33691406 272.2487793 C343.72219657 277.28314715 340.98533445 280.83494758 337.05078125 283.96875 C329.26388027 288.47927566 319.28527663 290.34056368 310.3684082 290.23388672 C308.7493029 290.21924881 308.7493029 290.21924881 307.0974884 290.20431519 C305.94125473 290.18974274 304.78502106 290.17517029 303.59375 290.16015625 C301.10221779 290.14261557 298.61068104 290.12570969 296.11914062 290.109375 C292.22504832 290.07866488 288.33118918 290.04342857 284.43725586 289.99658203 C254.27088777 289.65323441 230.89997539 293.03423546 205.98046875 311.16796875 C205.06007813 311.80863281 204.1396875 312.44929688 203.19140625 313.109375 C200.40486668 315.07069968 197.68278111 317.09239751 194.98046875 319.16796875 C194.26890625 319.70164062 193.55734375 320.2353125 192.82421875 320.78515625 C187.03363529 325.77149201 184.47630547 332.06623969 181.40136719 338.88818359 C168.26401761 367.77128051 141.09246369 387.96555893 111.98046875 399.16796875 C86.28655682 407.88821357 56.884331 410.41723062 30.98046875 401.16796875 C27.82086837 400.10430121 24.65271668 399.06825419 21.48046875 398.04296875 C20.68825928 397.78652588 19.8960498 397.53008301 19.07983398 397.26586914 C8.29780956 393.87905926 -2.6628418 392.54145613 -13.890625 391.53515625 C-35.27681983 389.60488162 -54.71759097 385.80790921 -74.01953125 376.16796875 C-75.44845703 375.46220703 -75.44845703 375.46220703 -76.90625 374.7421875 C-92.76179447 366.12240452 -99.14615089 350.78909051 -104.27832031 334.50830078 C-112.78053778 307.6630252 -126.08095407 279.38308514 -151.01953125 264.16796875 C-160.46176558 259.29417864 -167.3699097 256.84875573 -177.58203125 260.10546875 C-178.63519531 260.48574219 -179.68835938 260.86601563 -180.7734375 261.2578125 C-184.32792856 262.25443875 -187.34568221 262.23135319 -191.01953125 262.16796875 C-191.253272 246.49543202 -191.42953955 230.82336667 -191.53765297 215.14951897 C-191.58918998 207.87154712 -191.65943014 200.59465896 -191.77392578 193.31738281 C-191.87368978 186.97341027 -191.93813327 180.63022247 -191.9604162 174.28548729 C-191.97344082 170.92635501 -192.00397199 167.56946731 -192.07683182 164.21105576 C-192.14936377 160.45819382 -192.15942594 156.70999215 -192.15478516 152.95654297 C-192.19073792 151.84667526 -192.22669067 150.73680756 -192.26373291 149.5933075 C-192.22203528 146.4800524 -192.08979533 144.09451641 -191.01953125 141.16796875 C-187.99280661 138.4049205 -184.72488296 136.84884192 -181.01953125 135.16796875 C-179.55354833 134.27490022 -178.09991271 133.3607482 -176.66796875 132.4140625 C-175.97034424 131.95918457 -175.27271973 131.50430664 -174.55395508 131.03564453 C-150.81169311 115.31126119 -130.83057394 95.98290917 -112.45947266 74.34130859 C-108.67399031 69.89196826 -104.77263787 65.56596936 -100.80566406 61.27832031 C-98.39544215 58.67262783 -96.02171774 56.0462918 -93.70703125 53.35546875 C-90.23541912 49.35428866 -86.63026424 45.4806897 -83.01953125 41.60546875 C-82.43776123 40.97987061 -81.85599121 40.35427246 -81.2565918 39.7097168 C-57.35050251 14.13708917 -35.81527009 0.03161782 0 0 Z " fill="#c2b19b" transform="translate(191.01953125,1291.83203125)"/>
<path d="M0 0 C2.67534611 2.15911735 5.29374841 4.36967834 7.8984375 6.61328125 C8.72601562 7.29519531 9.55359375 7.97710938 10.40625 8.6796875 C40.54860487 34.33376069 46.75206901 72.96158786 54.09516907 109.77259827 C55.48468649 116.68730839 56.96315128 123.57796924 58.51953125 130.45703125 C58.71532272 131.32723907 58.9111142 132.1974469 59.11283875 133.09402466 C64.62393582 157.15016846 72.26273284 179.65639654 89.8984375 197.61328125 C90.63578125 198.37511719 91.373125 199.13695312 92.1328125 199.921875 C96.67811496 204.32227687 101.49121117 207.73796162 107.015625 210.79296875 C108.05160072 211.37032021 108.05160072 211.37032021 109.10850525 211.95933533 C117.72550287 216.7002681 126.5933804 220.92909104 135.4609375 225.17578125 C169.35004428 241.44294614 169.35004428 241.44294614 177.2109375 248.05078125 C177.78086426 248.51540771 178.35079102 248.98003418 178.93798828 249.45874023 C180.6048782 250.82845632 182.25348573 252.21734767 183.8984375 253.61328125 C184.82785156 254.38929688 185.75726562 255.1653125 186.71484375 255.96484375 C200.35927751 267.75530102 211.18963414 283.46940966 213.8984375 301.61328125 C215.57274753 330.30964194 206.73493492 352.03643829 187.8984375 373.61328125 C166.83825301 396.76704175 139.65202082 417.45097233 107.234375 419.52294922 C63.60415403 421.21015467 24.42727093 405.37223894 -12.1015625 382.61328125 C-47.55118501 360.63416871 -74.27707155 349.69076922 -116.22265625 347.1875 C-142.46038377 345.55173145 -165.33056509 340.48475589 -184.1015625 320.61328125 C-192.57765655 309.20737281 -195.42311295 298.33732171 -193.828125 284.1875 C-191.61915301 272.12151151 -182.60723843 263.36021763 -172.84765625 256.58984375 C-170.6102375 255.05179848 -168.36658555 253.53785079 -166.07910156 252.07519531 C-159.92208032 247.99223737 -155.698076 243.08168184 -154.0390625 235.73828125 C-153.54128621 228.27163696 -157.76227068 221.23951346 -162.29296875 215.6015625 C-167.74885881 209.60361857 -174.02495945 204.61389092 -180.4765625 199.73828125 C-192.34711637 190.72564837 -203.60454326 181.85029364 -207.1015625 166.61328125 C-208.13101087 156.06314736 -208.24035489 145.11519926 -203.1015625 135.61328125 C-202.71226563 134.8759375 -202.32296875 134.13859375 -201.921875 133.37890625 C-191.40880666 115.83638985 -173.17585528 105.76766528 -155.3972168 97.07421875 C-143.42204134 91.09234288 -133.80112742 83.63350505 -129.04296875 70.74609375 C-126.54105161 62.10310728 -126.01206943 53.61115632 -125.8112793 44.66333008 C-125.23288889 19.57252106 -120.51164487 3.06623045 -103.1015625 -15.38671875 C-102.37839844 -16.19753906 -101.65523437 -17.00835938 -100.91015625 -17.84375 C-72.81282679 -48.15267605 -25.85697972 -19.89749951 0 0 Z " fill="#c2b19b" transform="translate(1539.1015625,760.38671875)"/>
<path d="M0 0 C6.56658458 6.23537527 9.64769849 13.25477541 10.203125 22.3125 C10.46333562 42.78240235 3.57533681 57.94954786 -10 73 C-10.69681885 73.78503906 -10.69681885 73.78503906 -11.40771484 74.5859375 C-17.88046431 81.86858199 -24.59421895 88.65218767 -32 95 C-33.08082214 95.93218388 -34.16154555 96.86448224 -35.2421875 97.796875 C-39.99533428 101.88775849 -44.76787008 105.95569378 -49.55078125 110.01171875 C-71.75658117 128.78117475 -71.75658117 128.78117475 -89 152 C-89.40089844 152.68835938 -89.80179688 153.37671875 -90.21484375 154.0859375 C-95.45664764 163.7783296 -97.14848886 173.02155759 -94.27734375 183.68359375 C-88.95025245 199.94159966 -77.32919536 211.26770586 -64.56640625 221.98046875 C-59.21564882 226.47973894 -54.10336375 231.22444355 -49 236 C-47.90751953 236.97646484 -47.90751953 236.97646484 -46.79296875 237.97265625 C-36.86661788 247.19417748 -28.00068903 261.28986791 -26.82299805 275.07128906 C-26.75617036 277.46430607 -26.71516327 279.8562051 -26.6875 282.25 C-26.64399414 283.48169922 -26.64399414 283.48169922 -26.59960938 284.73828125 C-26.53053592 291.44371998 -28.06063543 296.66982883 -32.5534668 301.76000977 C-42.35271401 311.43559717 -56.7575399 311.15998661 -69.55078125 311.203125 C-70.20696127 311.20595238 -70.86314129 311.20877975 -71.53920555 311.21169281 C-75.03159348 311.22665334 -78.52394066 311.23589496 -82.01635742 311.24023438 C-84.84657051 311.24456658 -87.67646968 311.25825433 -90.5065918 311.28125 C-108.87457859 311.42728486 -126.78301249 310.5849317 -145 308 C-146.96247518 307.73440823 -148.92511992 307.47006608 -150.88793945 307.20703125 C-156.42925549 306.45676988 -161.96494917 305.66998573 -167.5 304.875 C-170.28938101 304.47596153 -173.07890107 304.07798584 -175.86877441 303.68240356 C-177.57211823 303.44075616 -179.27519117 303.19718665 -180.97790527 302.95114136 C-189.62721625 301.72134481 -198.20515692 300.84765695 -206.9453125 300.76171875 C-207.758862 300.753647 -208.5724115 300.74557526 -209.41061401 300.73725891 C-211.11975049 300.72354598 -212.82891287 300.71276781 -214.53808594 300.70483398 C-216.25203734 300.69334941 -217.96595398 300.67295368 -219.6796875 300.64331055 C-245.17251515 300.20453976 -263.13061323 308.91825304 -283.74462891 323.23608398 C-290.7884308 328.11079246 -297.84332439 332.64839952 -305.50390625 336.50390625 C-306.14927338 336.82995346 -306.7946405 337.15600067 -307.45956421 337.4919281 C-320.97881273 344.07402798 -338.5722305 345.57666088 -353 341 C-365.09602405 335.95876519 -374.58433517 328.32910043 -380.16015625 316.32421875 C-388.94024085 292.02584509 -379.24475192 259.58314658 -372.96826172 236.00024414 C-369.74699795 223.77423008 -369.22872185 214.75350772 -375.51171875 203.2265625 C-382.94687037 191.96118126 -394.10541918 184.94729958 -404.99951172 177.38818359 C-420.96314123 166.31066378 -439.15231125 153.36956015 -443 133 C-443.32641245 129.18392865 -443.3700759 125.39098833 -443.375 121.5625 C-443.39949219 120.56412109 -443.42398437 119.56574219 -443.44921875 118.53710938 C-443.48257046 110.08245045 -441.29401462 103.86537085 -435.5859375 97.5 C-425.43290313 87.89713005 -413.64961254 84.34813076 -400.25 82.0625 C-390.99822708 80.41599116 -384.92940495 78.89376441 -378.8671875 71.34375 C-373.13538355 63.11551576 -369.1769651 54.10787532 -365.09301758 44.98046875 C-356.54290377 25.930294 -345.58290567 4.63891481 -325.4375 -4.11328125 C-320.64131478 -5.35047903 -316.05814906 -5.32900987 -311.125 -5.3125 C-310.16980469 -5.32861328 -309.21460938 -5.34472656 -308.23046875 -5.36132812 C-300.29650012 -5.3667698 -293.54131572 -4.12286893 -287.4375 1.43359375 C-277.39850432 12.37282546 -274.8042489 26.27880816 -271.8125 40.3125 C-271.45455974 41.95915493 -271.09584129 43.6056409 -270.73632812 45.25195312 C-269.45029238 51.15966227 -268.16710586 57.06739299 -267 63 C-248.61255154 58.03041934 -235.6510426 48.15751824 -221.9375 35.3125 C-198.33553375 13.79885464 -166.35902666 5.12047637 -136 -2 C-135.06188477 -2.22139648 -134.12376953 -2.44279297 -133.15722656 -2.67089844 C-32.15133086 -26.09106016 -32.15133086 -26.09106016 0 0 Z " fill="#c2b19b" transform="translate(721,157)"/>
<path d="M0 0 C1.22783203 0.54914062 1.22783203 0.54914062 2.48046875 1.109375 C15.70582553 7.59200071 27.45978815 17.778178 38.6875 27.1875 C56.56748073 42.13313849 80.34572085 60.06757366 105 59 C124.52260547 57.00407867 141.75532768 47.72173364 157.3125 36.125 C182.31115603 17.53340692 213.16376869 2.16362221 245 5 C255.12913861 7.21608689 262.13210001 13.16422106 267.78125 21.6875 C277.01796364 38.34980696 275.49212888 57.87199926 275.38692474 76.2989006 C275.37486257 78.52536764 275.36740791 80.7518123 275.36090088 82.978302 C275.28205138 106.44243374 274.40997605 129.65240077 272 153 C271.76668984 155.29846204 271.53380805 157.59696758 271.30126953 159.89550781 C270.25693806 170.19521375 269.20771946 180.49434422 268.12915039 190.79052734 C266.76620933 203.8735572 265.53287858 216.92796063 264.8125 230.0625 C263.63025059 251.40073046 261.61669418 272.62269243 245.3203125 288.14453125 C234.17899463 297.05383426 220.79538644 298.99027447 206.9765625 297.72265625 C191.37802386 295.77747032 179.53642236 287.99959131 166.9765625 279.18359375 C150.00450289 266.58133578 150.00450289 266.58133578 130 263 C119.94508205 266.91466173 115.6464038 276.63935572 111.04785156 285.69873047 C102.13817236 303.2398525 92.24347621 313.63708814 73.61328125 320.640625 C61.71638481 324.38405687 50.27718637 325.49037873 37.88427734 325.39111328 C35.50169672 325.37501147 33.12081144 325.39107252 30.73828125 325.41015625 C10.48887485 325.43838571 -9.54644807 321.07838991 -24.75 306.6875 C-43.80604796 286.21820446 -45.56779755 259.87565054 -47.71362305 233.34692383 C-48.95443142 218.26102135 -50.3322177 202.35955348 -58 189 C-58.49113281 188.11570312 -58.98226562 187.23140625 -59.48828125 186.3203125 C-65.33944129 176.4613173 -73.22886793 168.06054489 -81.98046875 160.69921875 C-85.2051471 157.98599809 -88.30802479 155.13909221 -91.4296875 152.30859375 C-93.10590769 150.80305251 -94.79808707 149.31503742 -96.5078125 147.84765625 C-108.97463281 137.04177595 -120.85870715 123.57680024 -122.20361328 106.39941406 C-123.28840824 75.25108043 -111.19314678 50.68020952 -90.2578125 28.00390625 C-68.63197709 5.18532256 -31.35818848 -15.80412689 0 0 Z " fill="#c2b19b" transform="translate(339,728)"/>
<path d="M0 0 C0.85519226 -0.00696899 1.71038452 -0.01393799 2.5914917 -0.02111816 C5.3409929 -0.03842982 8.0902903 -0.04483889 10.83984375 -0.046875 C11.77742523 -0.04788208 12.71500671 -0.04888916 13.68099976 -0.04992676 C40.31285109 -0.03056828 62.29411965 2.55480161 85.64941406 15.98535156 C94.32958188 20.95284549 102.88506731 24.67885765 112.40234375 27.703125 C125.37927134 31.85265702 134.97102176 37.57598829 144.77734375 47.203125 C145.27768624 47.62417282 145.77802874 48.04522064 146.29353312 48.47902749 C149.34628404 51.18093965 150.65113096 52.60993065 151.52253473 56.70548856 C151.52025641 58.00944818 151.51797808 59.31340779 151.51563072 60.65688133 C151.52255379 61.38980508 151.52947685 62.12272883 151.53660971 62.87786239 C151.55250224 65.3357719 151.52557452 67.79132641 151.49887085 70.24911499 C151.50148731 72.02796309 151.5067408 73.80680895 151.51440585 75.58564246 C151.52783357 80.47505896 151.50380729 85.36368814 151.47373748 90.25300431 C151.44785046 95.52493158 151.45659326 100.79681369 151.46115112 106.06878662 C151.46429875 115.20321566 151.44545808 124.33738776 151.41172409 133.47175217 C151.36298216 146.67849955 151.34733748 159.88512255 151.33979614 173.09195013 C151.32666117 194.51856455 151.28672279 215.945042 151.22998047 237.37158203 C151.17491467 258.18667922 151.13244001 279.00173922 151.10693359 299.81689453 C151.10456908 301.74114217 151.10456908 301.74114217 151.1021568 303.70426349 C151.09432663 310.13979009 151.08674437 316.57531695 151.07928538 323.01084399 C151.01707507 376.40836567 150.91138734 429.80573866 150.77734375 483.203125 C148.86759742 483.23112424 146.95773154 483.25104113 145.04785156 483.26757812 C143.98431458 483.27954224 142.92077759 483.29150635 141.82501221 483.30383301 C137.70421842 483.16766435 134.3339194 482.20351672 130.52734375 480.703125 C129.81408936 480.43540283 129.10083496 480.16768066 128.3659668 479.8918457 C95.75113438 467.29188457 64.67073168 443.77764232 49.02734375 411.953125 C47.00812089 407.20899932 45.51139241 402.33995226 44.08984375 397.390625 C43.88713867 396.69227539 43.68443359 395.99392578 43.47558594 395.27441406 C39.88076113 382.04137783 39.29894101 368.41787722 38.5166626 354.80130005 C36.06513554 294.70630096 36.06513554 294.70630096 6.77734375 244.203125 C-5.35412865 233.73375984 -19.30509669 225.4089342 -32.64697266 216.60302734 C-39.89265416 211.80112689 -46.92799207 206.84893544 -53.59765625 201.265625 C-54.12053223 200.83604492 -54.6434082 200.40646484 -55.18212891 199.96386719 C-65.81909893 190.77814783 -73.55429377 178.7105638 -81.22265625 167.078125 C-81.7047757 166.35079163 -82.18689514 165.62345825 -82.68362427 164.87408447 C-89.71385202 154.25763688 -96.53667997 143.61343651 -102.22265625 132.203125 C-102.71741455 131.22786865 -102.71741455 131.22786865 -103.22216797 130.23291016 C-110.32971983 116.11879565 -114.39846677 102.91516311 -114.47265625 87.140625 C-114.49328125 86.07134766 -114.51390625 85.00207031 -114.53515625 83.90039062 C-114.6239761 65.52578482 -107.50822346 50.66999675 -95.22265625 37.203125 C-94.6090625 36.50832031 -93.99546875 35.81351563 -93.36328125 35.09765625 C-70.13233909 10.22863483 -33.02300504 0.18212905 0 0 Z " fill="#c2b19b" transform="translate(1769.22265625,589.796875)"/>
<path d="M0 0 C1.2375 0.350625 2.475 0.70125 3.75 1.0625 C30.25880947 9.1499334 55.56512505 23.23814994 75.48486328 42.54052734 C77.0441812 44.04255805 78.62825952 45.51512659 80.21484375 46.98828125 C95.62532431 61.53292706 104.82152303 78.87487164 114.29052734 97.64355469 C121.91962882 112.6228302 130.05642991 127.17345872 139.75390625 140.9140625 C158.50243055 167.5293015 164.53402794 195.12205436 158.984375 227.1484375 C156.39197806 240.67515598 152.59821712 255.45294784 141 264 C134.48915437 267.00945754 128.08535884 267.87609783 121 268.6875 C119.93910156 268.81705078 118.87820313 268.94660156 117.78515625 269.08007812 C115.19103263 269.39557965 112.59618089 269.70198859 110 270 C105.90726018 278.56544222 106.56522164 287.25783145 106.56054688 296.58398438 C106.21761625 319.98604313 94.08670857 335.55156146 80 353 C78.85232522 354.43837189 77.70517621 355.87716348 76.55859375 357.31640625 C71.04672647 364.20160344 65.42527888 370.91772162 59.4140625 377.375 C57.46446451 379.49495121 55.57088431 381.64236795 53.6875 383.8203125 C41.18942823 398.14122955 27.40303814 411.84989095 10 420 C9.30003906 420.33902344 8.60007812 420.67804688 7.87890625 421.02734375 C2.94411625 423.05163379 -1.96284085 423.29980166 -7.25 423.375 C-7.93602295 423.38901855 -8.6220459 423.40303711 -9.32885742 423.41748047 C-14.69592002 423.36635934 -17.71219399 421.98733379 -21.6953125 418.52734375 C-29.62728453 409.70681748 -30.02728117 397.97787803 -30.46484375 386.62109375 C-30.54342833 384.79361155 -30.62221081 382.96613785 -30.70117188 381.13867188 C-30.82001656 378.29786915 -30.93672495 375.45701476 -31.04956055 372.6159668 C-31.01966769 347.68203463 -31.01966769 347.68203463 -40.94140625 325.79296875 C-43.21386737 323.73189936 -45.55951691 321.8586961 -48 320 C-61.66867151 309.0493064 -75.1638272 298.10527162 -77.27685547 279.57167053 C-77.37542051 277.12605706 -77.39035664 274.6974136 -77.36328125 272.25 C-77.36402901 270.9036145 -77.36402901 270.9036145 -77.36479187 269.5300293 C-77.36246756 267.64092788 -77.35283718 265.75182239 -77.33618164 263.86279297 C-77.31278568 261.03453444 -77.31561015 258.20723594 -77.32226562 255.37890625 C-77.30544265 245.08718359 -76.73584826 235.04012214 -75.46508789 224.82910156 C-73.75809773 210.77533063 -75.1435091 197.16840175 -77.3125 183.25 C-77.41909943 182.55863953 -77.52569885 181.86727905 -77.63552856 181.15496826 C-79.39236297 165.87579279 -79.39236297 165.87579279 -88 154 C-91.35975435 152.3138997 -94.81208896 150.92797786 -98.3125 149.5625 C-111.5201734 144.40077322 -121.8370319 137.08604421 -127.8671875 123.84765625 C-137.23402179 100.3013728 -134.30561836 73.92845417 -124.74609375 50.8359375 C-115.0377592 28.82590788 -98.19963572 10.60042036 -76 1 C-75.36819824 0.72607422 -74.73639648 0.45214844 -74.08544922 0.16992188 C-52.79048518 -8.41476178 -21.59792736 -6.72722328 0 0 Z " fill="#c2b19b" transform="translate(1337,178)"/>
<path d="M0 0 C1.67564909 1.50424681 3.34147068 3.01953063 4.99609375 4.546875 C6.97398933 6.35994594 8.99806192 8.07976514 11.05859375 9.796875 C25.66974154 22.61830388 37.16606149 38.47035886 47.99609375 54.484375 C57.99560251 69.26728836 68.44311577 83.77413547 86.33984375 89.25 C95.77661 91.02906249 102.56032568 88.00406406 110.49609375 83.109375 C118.35197449 77.67916972 125.70637838 70.82493726 131.80859375 63.484375 C140.95473587 52.73208109 152.87908496 45.0650446 166.24609375 40.609375 C171.52609375 40.609375 176.80609375 40.609375 182.24609375 40.609375 C182.24609375 115.849375 182.24609375 191.089375 182.24609375 268.609375 C173.36459086 268.609375 173.36459086 268.609375 168.05859375 266.234375 C140.36210457 255.04130474 111.78758873 266.53352583 85.82421875 277 C85.06805771 277.3042691 84.31189667 277.60853821 83.53282166 277.92202759 C79.72864308 279.4533061 75.9276949 280.99160793 72.13305664 282.54638672 C54.35707776 289.78521595 37.69869188 294.97442269 18.30859375 294.921875 C17.12330078 294.93798828 15.93800781 294.95410156 14.71679688 294.97070312 C-2.63064887 294.980219 -16.55350371 289.62062609 -28.94140625 277.45703125 C-29.88111593 276.50999999 -30.8187235 275.56087682 -31.75390625 274.609375 C-32.96046875 273.40087891 -32.96046875 273.40087891 -34.19140625 272.16796875 C-40.40438419 265.62061179 -45.17524568 258.33536 -49.75390625 250.609375 C-50.10388672 250.03525879 -50.45386719 249.46114258 -50.81445312 248.86962891 C-61.13129737 231.7469335 -67.24808935 212.09832498 -74.01171875 193.375 C-79.87443807 177.27349115 -86.99452494 162.29764862 -98.75390625 149.609375 C-99.57246094 148.69929687 -100.39101562 147.78921875 -101.234375 146.8515625 C-116.85191866 130.2882001 -137.08391648 121.79092038 -158.37646484 114.84155273 C-168.01953201 111.57203764 -168.01953201 111.57203764 -170.75390625 106.609375 C-171.9921875 104.0234375 -171.9921875 104.0234375 -173.06640625 101.234375 C-174.70410188 97.09703866 -176.46938672 93.10220028 -178.44970703 89.12329102 C-189.68181941 66.29017135 -187.40716195 39.46593953 -179.37890625 15.796875 C-171.40419776 -4.164062 -157.48723079 -20.39655911 -137.75390625 -29.390625 C-91.60264997 -48.29540132 -36.23534548 -31.45536373 0 0 Z " fill="#c2b19b" transform="translate(1737.75390625,255.390625)"/>
<path d="M0 0 C5.62340908 5.42815182 9.60463323 9.99771636 10.24291992 18.07348633 C10.23881104 19.14880615 10.23470215 20.22412598 10.23046875 21.33203125 C10.22877686 22.53480713 10.22708496 23.73758301 10.2253418 24.97680664 C10.212854 26.24258545 10.20036621 27.50836426 10.1875 28.8125 C10.18327026 30.76240845 10.18327026 30.76240845 10.17895508 32.75170898 C10.1425625 39.03510257 9.97490798 45.24390271 9.38208008 51.49902344 C8.42247096 61.67545535 10.70325804 69.09726234 16.9375 77.1875 C24.23134578 84.74743028 33.81287018 89.67541523 43.328125 93.84765625 C44.10483047 94.19035049 44.88153595 94.53304474 45.68177795 94.88612366 C53.37793694 98.23771809 61.21004785 101.18177968 69.08825684 104.07272339 C106.76472787 117.94175638 106.76472787 117.94175638 118 128 C118.86625 128.598125 119.7325 129.19625 120.625 129.8125 C126.77979879 135.48139362 131.89883082 142.87590301 132.3359375 151.36328125 C132.35971104 153.01290092 132.37243224 154.66271103 132.375 156.3125 C132.39949219 157.12912109 132.42398437 157.94574219 132.44921875 158.78710938 C132.48408322 166.07959396 130.39170774 170.95885851 125.9140625 176.65234375 C114.45406709 188.09278285 101.46693914 194.43443701 86.79052734 200.78027344 C81.8107533 202.95690958 76.8756683 205.23092052 71.9375 207.5 C70.42313354 208.19428101 70.42313354 208.19428101 68.87817383 208.90258789 C62.50305489 211.83122404 56.14975766 214.80289695 49.8125 217.8125 C48.64473022 218.36502441 48.64473022 218.36502441 47.45336914 218.92871094 C44.13469681 220.50076998 40.82646291 222.08588814 37.53515625 223.71484375 C30.77901578 226.9968749 24.06528694 229.34538631 16.82177734 231.26464844 C12.79782506 232.35148542 9.37969688 233.52580681 6 236 C4.69717941 238.96753578 4.63877816 240.89006382 5.64453125 243.98046875 C8.82023978 250.89090567 13.34766433 257.03665135 17.609375 263.30444336 C26.11309863 275.94471958 30.2152006 288.11525522 27.57421875 303.4765625 C24.88269991 311.76578002 18.19670225 317.62063191 10.74609375 321.68359375 C-5.15401841 329.30569588 -28.11699071 331.19515833 -44.8828125 325.34277344 C-85.21471317 310.25724109 -123.06343466 266.09470054 -140.71484375 227.359375 C-147.09868659 212.09013259 -150.38861735 196.31660687 -153.4375 180.125 C-157.49753553 150.95155545 -157.49753553 150.95155545 -172.6796875 127.28125 C-178.36301355 124.14298242 -184.77266428 122.69462783 -191 121 C-256.80730699 103.09127687 -256.80730699 103.09127687 -269.16015625 81.7265625 C-272.63932915 74.57403032 -272.44905843 63.56832104 -270.45361328 55.90039062 C-267.29603911 47.25396979 -261.52569699 40.3265285 -255 34 C-254.43667969 33.42765625 -253.87335937 32.8553125 -253.29296875 32.265625 C-234.75141514 14.76167658 -205.52118669 15.75277868 -181.7902832 15.46826172 C-167.18256004 15.27642812 -152.71294747 14.77489557 -138.5625 10.75 C-137.69471924 10.51039551 -136.82693848 10.27079102 -135.93286133 10.02392578 C-123.78662314 6.5368613 -111.86663889 2.24080555 -99.95727539 -1.97363281 C-86.45071927 -6.7191687 -72.82802219 -10.93750942 -58.5 -12.25 C-57.79359375 -12.32734375 -57.0871875 -12.4046875 -56.359375 -12.484375 C-37.78283011 -14.38270805 -14.69082936 -12.73970359 0 0 Z " fill="#c2b19b" transform="translate(797,545)"/>
<path d="M0 0 C1.45713095 -0.01140266 2.91422416 -0.03166347 4.37109375 -0.06152344 C15.33211099 -0.285473 24.93203848 1.06987322 35.40258789 4.29516602 C36.11264984 4.51258453 36.82271179 4.73000305 37.55429077 4.95401001 C42.07606302 6.3545922 46.57095862 7.82748427 51.05664062 9.33935547 C53.33247826 10.10510561 55.61230631 10.85793249 57.89282227 11.60961914 C77.08853643 17.99569156 96.91711634 24.62533392 111.40258789 39.29516602 C111.98782227 39.85848633 112.57305664 40.42180664 113.17602539 41.00219727 C124.76848542 53.09483958 124.90502673 72.12217073 126.47216797 87.81152344 C128.61815767 109.78236871 128.61815767 109.78236871 136.40258789 130.29516602 C137.03100586 131.48819336 137.03100586 131.48819336 137.67211914 132.70532227 C141.4209867 139.38718813 146.17459783 144.73524007 151.40258789 150.29516602 C153.76728672 152.93495285 156.08616279 155.61298958 158.40258789 158.29516602 C159.22500977 159.23875977 160.04743164 160.18235352 160.89477539 161.15454102 C183.76163409 187.60141898 203.8535916 218.86053583 204.84008789 254.79516602 C204.89217407 255.98178833 204.89217407 255.98178833 204.9453125 257.19238281 C204.96118164 259.45141602 204.96118164 259.45141602 204.40258789 263.29516602 C200.61530139 267.09763202 195.26692242 267.0848385 190.15258789 267.48266602 C188.69405396 267.59892334 188.69405396 267.59892334 187.20605469 267.7175293 C160.43281171 269.5506232 133.81271025 269.27361698 107.40258789 264.29516602 C106.20794922 264.07070801 105.01331055 263.84625 103.7824707 263.61499023 C102.55625 263.38440918 101.3300293 263.15382813 100.06665039 262.91625977 C70.26789555 257.33083831 44.18169307 258.52330575 18.24145508 275.97241211 C9.96430778 281.92641955 3.06454271 289.31899415 -3.21850586 297.30297852 C-31.7741085 333.22020614 -31.7741085 333.22020614 -53.54663086 336.97875977 C-69.91690497 338.67657309 -86.75140543 337.89364854 -100.08569336 327.32250977 C-108.91291007 319.72762073 -115.39356745 310.77843865 -121.73925781 301.11621094 C-125.43971697 295.48446183 -129.32756927 290.00461804 -133.26538086 284.53735352 C-144.89538435 268.36833694 -144.89538435 268.36833694 -144.95141602 259.42089844 C-144.96455841 258.51326248 -144.97770081 257.60562653 -144.99124146 256.67048645 C-145.030695 253.66386592 -145.05402789 250.657445 -145.07397461 247.65063477 C-145.08620119 246.11040366 -145.08620119 246.11040366 -145.09867477 244.53905678 C-145.14038914 239.1051476 -145.16899637 233.67133935 -145.18774414 228.23730469 C-145.20988415 222.6244059 -145.2786938 217.01309066 -145.35808754 211.40075207 C-145.41037261 207.08471222 -145.42712313 202.76905125 -145.4343071 198.45272255 C-145.44405029 196.38379522 -145.46731197 194.31488545 -145.50438309 192.24626732 C-145.55308423 189.34877305 -145.5512594 186.45539528 -145.53735352 183.55761719 C-145.56297363 182.70493256 -145.58859375 181.85224792 -145.61499023 180.97372437 C-145.55123597 177.32482164 -145.42247795 175.16969307 -142.85612106 172.44948769 C-140.82965634 170.90436333 -138.80508983 169.56495835 -136.59741211 168.29516602 C-135.63319336 167.73829102 -134.66897461 167.18141602 -133.67553711 166.60766602 C-121.15201689 160.79564558 -107.8997542 157.3598727 -94.54833984 153.99438477 C-79.81735783 150.27076296 -65.28546624 146.48306641 -56.90600586 132.74438477 C-46.17637369 112.66235679 -48.1470049 88.36387883 -48.09210205 66.284729 C-48.08045266 62.08170255 -48.05660467 57.87906719 -48.01741028 53.67620468 C-48.0041314 51.74618714 -48.00815747 49.81607444 -48.01281738 47.88601685 C-47.89960291 34.46074232 -45.81713444 22.28893265 -36.59350586 12.07641602 C-25.80421186 1.73104645 -14.33718447 0.07765249 0 0 Z " fill="#c2b19b" transform="translate(144.597412109375,374.704833984375)"/>
<path d="M0 0 C7 0 7 0 10.140625 2.3515625 C11.19761948 3.42282707 12.23319637 4.51551567 13.25 5.625 C13.81009766 6.21112061 14.37019531 6.79724121 14.94726562 7.40112305 C20.20885511 13.00608637 24.9031075 19.01441596 29.55371094 25.12597656 C32.181169 28.53049515 34.90565933 31.85624862 37.625 35.1875 C38.17494629 35.86135742 38.72489258 36.53521484 39.29150391 37.22949219 C40.3626661 38.54157765 41.43410933 39.85343373 42.50585938 41.16503906 C43.87070247 42.84120911 45.22651812 44.52408955 46.578125 46.2109375 C54.03311117 55.46627747 61.33950603 64.11316868 73 68 C84.75387061 69.03104128 93.10893902 63.07528092 102 56 C103.77251597 54.50198871 105.54333848 53.00197144 107.3125 51.5 C135.57440986 28.24196936 174.78382507 25.04525028 210 27 C222.66001468 28.48104992 234.03963316 33.71874728 245 40 C245.97195312 40.55558594 246.94390625 41.11117188 247.9453125 41.68359375 C261.67660637 50.03045897 273.49158126 60.88271246 285 72 C286.22589844 73.18142578 286.22589844 73.18142578 287.4765625 74.38671875 C291.89212108 78.72555913 295.99553116 83.2816197 300 88 C300.7734375 88.89589844 301.546875 89.79179688 302.34375 90.71484375 C311.55383814 101.53101207 319.20565947 112.97085224 326.10717773 125.37719727 C330.9912313 134.06147079 335.50787277 139.35034092 345 143 C353.09658706 144.91799539 361.15463327 145.24926875 369.4375 145.375 C378.60564129 145.63717857 386.53324946 146.20987647 395 150 C395.79792969 150.34933594 396.59585937 150.69867187 397.41796875 151.05859375 C411.10677708 157.86765676 423.67658847 172.17594607 430 186 C430 188.31 430 190.62 430 193 C288.1 193 146.2 193 0 193 C0 129.31 0 65.62 0 0 Z " fill="#c2b19b" transform="translate(0,1727)"/>
<path d="M0 0 C5.762146 -0.16220093 5.762146 -0.16220093 7.90283203 1.29760742 C8.69729736 2.19249878 8.69729736 2.19249878 9.5078125 3.10546875 C10.10207031 3.75966797 10.69632813 4.41386719 11.30859375 5.08789062 C11.90800781 5.78076172 12.50742188 6.47363281 13.125 7.1875 C13.73214844 7.86103516 14.33929688 8.53457031 14.96484375 9.22851562 C18.09719483 12.72596645 21.11031203 16.29803655 24 20 C22 21 22 21 18 21 C18.92224365 21.90129639 19.8444873 22.80259277 20.79467773 23.73120117 C24.26617287 27.12941544 27.72369008 30.54157432 31.17749023 33.95776367 C32.66436652 35.42472285 34.15483683 36.88804961 35.64916992 38.34741211 C45.77129139 48.23879128 54.46971594 57.854334 61.4375 70.25 C62.71260985 73.08827904 62.71260985 73.08827904 65 74 C65.99 72.02 65.99 72.02 67 70 C69.3509707 72.16799923 70.87947947 74.30083177 72.41796875 77.09765625 C72.86358154 77.89461914 73.30919434 78.69158203 73.76831055 79.51269531 C74.23664307 80.35413086 74.70497559 81.19556641 75.1875 82.0625 C83.62407781 96.88949667 92.45715546 107.18255728 107.875 114.8125 C109.92007834 115.85518853 111.96434004 116.89948024 114.0078125 117.9453125 C115.5222998 118.71536621 115.5222998 118.71536621 117.06738281 119.50097656 C151.99939382 137.3566665 151.99939382 137.3566665 158.69140625 155.14453125 C160.35716007 160.48138011 160.49677264 165.63022707 160.4375 171.1875 C160.42847656 172.20271729 160.41945312 173.21793457 160.41015625 174.26391602 C159.7969341 200.98805227 142.36844499 223.25040042 126.34375 243.328125 C101.29261302 274.61954313 101.29261302 274.61954313 93 313 C94.63289795 324.99344126 97.88927352 336.65586704 101.0625 348.3125 C108.26152545 374.83318167 114.08452138 403.10462121 100.1875 428.5 C95.23339248 436.00698945 89.07650406 442.99560535 80 445 C70.79346918 445.98269298 61.58637299 445.68629626 53 442 C52.23042969 441.68289063 51.46085937 441.36578125 50.66796875 441.0390625 C43.41469972 437.7346653 37.15239252 432.97300954 30.75830078 428.28320312 C28.07050964 426.32166046 25.35233071 424.40608986 22.625 422.5 C21.14437655 421.44920433 21.14437655 421.44920433 19.63384151 420.37718046 C17.1429839 418.67698914 14.63210279 417.27755336 11.92067051 415.95986807 C0.99736988 410.43990671 0.99736988 410.43990671 -1.46881294 404.40678287 C-2.21658466 400.04989448 -2.05958653 395.70965913 -1.92407227 391.30819702 C-1.93105723 389.61660598 -1.94508105 387.92503195 -1.96549892 386.23354971 C-2.00117208 381.60206389 -1.9374644 376.97653097 -1.85704994 372.34580398 C-1.78780231 367.34662224 -1.81134657 362.34776265 -1.82348633 357.34823608 C-1.83186704 348.69227194 -1.78177007 340.03824077 -1.69168091 331.38276291 C-1.56151652 318.86882459 -1.51996535 306.35581873 -1.49987304 293.84127684 C-1.46487469 273.53672137 -1.35845172 253.23319569 -1.20703125 232.92919922 C-1.06011432 213.20854843 -0.94688613 193.48817757 -0.87890625 173.76708984 C-0.87470267 172.55102288 -0.8704991 171.33495592 -0.86616814 170.08203845 C-0.84528719 163.98124548 -0.82506795 157.88045053 -0.80517769 151.77965426 C-0.6393719 101.18572453 -0.35761714 50.59291255 0 0 Z " fill="#c2b19b" transform="translate(0,808)"/>
<path d="M0 0 C100.65 0 201.3 0 305 0 C305 33 305 66 305 100 C297.13919822 100 297.13919822 100 292.48046875 97.3671875 C290.96005981 96.53247925 290.96005981 96.53247925 289.40893555 95.6809082 C288.34586182 95.0849585 287.28278809 94.48900879 286.1875 93.875 C261.02093857 80.28707529 237.53905574 75.35656878 209.625 83.5 C181.24148796 92.22088824 155.67774197 106.87198592 130.0078125 121.4699707 C103.11601245 136.74787461 76.03313972 149.24181695 44.25 141.4375 C27.98183771 136.58057965 15.56874903 125.96093062 7.52563477 111.14233398 C-1.12999489 94.3383219 -3.18796317 76.3972822 -3.24023438 57.75170898 C-3.24954244 55.784217 -3.28046331 53.81686254 -3.3125 51.84960938 C-3.37814387 34.41295731 -1.4214669 17.53142511 0 0 Z " fill="#c2b19b" transform="translate(1615,0)"/>
<path d="M0 0 C142.56 0 285.12 0 432 0 C432 18.70677817 432 18.70677817 430.3125 28.0625 C430.13315918 29.08545166 429.95381836 30.10840332 429.76904297 31.16235352 C427.11241326 45.5939765 423.43791036 59.0198884 411.80859375 68.80859375 C404.4829018 73.63437354 394.50886013 73.05360713 386.140625 71.453125 C369.82402868 66.0818231 354.15274806 55.1410221 341.27294922 43.94384766 C331.89212129 35.82021308 323.23910578 33.56696026 311.21875 31.56884766 C304.19879194 30.32834574 299.48828887 28.12541341 294 23.4375 C290.15113019 20.31029328 286.91764652 17.97436163 281.77734375 18.01953125 C252.58594806 22.12527624 227.37027795 41.18046431 208.7421875 62.97265625 C205.94314047 66.22984326 203.04511906 69.39745201 200.1640625 72.58203125 C198.36568848 74.59140584 196.6163372 76.62915013 194.875 78.6875 C169.41070695 107.67220223 135.6511325 128.41883044 97 134 C75.86289175 135.28055515 56.08187651 134.56572427 39.3215332 120.16088867 C17.44732466 100.52269524 13.51703767 72.23042056 9.05957031 44.64984131 C7.29274721 33.75008729 5.45359138 23.09699059 1.77734375 12.64208984 C0.11322713 7.90232912 0 5.37814585 0 0 Z " fill="#c2b19b" transform="translate(315,0)"/>
<path d="M0 0 C0 61.71 0 123.42 0 187 C-8.58 187.66 -17.16 188.32 -26 189 C-37.82177461 190.97029577 -50.72002624 193.62576749 -59 203 C-63.76616052 209.83670567 -66.75356314 217.05238161 -69.5 224.875 C-75.97635132 242.60131326 -82.65359241 256.97990634 -100.16015625 266.12890625 C-108.418202 268.66197943 -120.72163869 268.703642 -128.625 265.125 C-149.20904739 252.13787695 -158.80451599 226.51272694 -164.33886719 203.96435547 C-167.62211554 189.24308462 -169.64498344 174.0804859 -170 159 C-170.02046387 158.29987793 -170.04092773 157.59975586 -170.06201172 156.87841797 C-170.85555787 126.97943529 -169.52065855 87.24107236 -147.75 64.1875 C-132.28037389 49.76135626 -113.31413871 45.55768266 -92.7109375 45.91015625 C-90.19791851 45.93056638 -87.6848976 45.95074165 -85.171875 45.97070312 C-81.26390968 46.01421784 -77.35608098 46.06275995 -73.44824219 46.11645508 C-69.63997899 46.16492996 -65.83189835 46.19465678 -62.0234375 46.22265625 C-60.86588959 46.24441422 -59.70834167 46.26617218 -58.51571655 46.28858948 C-48.56172056 46.34896222 -39.96545688 44.84415019 -32.20703125 38.30859375 C-24.39343936 30.13543834 -19.21741439 19.08884969 -13.71728516 9.30957031 C-13.05672119 8.14506348 -13.05672119 8.14506348 -12.3828125 6.95703125 C-11.99496582 6.26585205 -11.60711914 5.57467285 -11.20751953 4.86254883 C-7.73253798 -0.49746619 -7.40445822 0 0 0 Z " fill="#c2b19b" transform="translate(1920,1261)"/>
<path d="M0 0 C57.09 0 114.18 0 173 0 C173 7.87787885 173 7.87787885 170.83984375 10.5 C170.3794873 11.07314941 169.91913086 11.64629883 169.44482422 12.23681641 C168.94740723 12.81866699 168.44999023 13.40051758 167.9375 14 C167.43234863 14.61665527 166.92719727 15.23331055 166.40673828 15.86865234 C163.38176695 19.51621285 160.19865781 22.89407055 156.76171875 26.15625 C151.31862242 31.85279428 144 39.5833065 144 47.8125 C147.44046754 58.77899027 158.62575598 65.74433656 167.4375 72.3125 C179.02400323 81.29838298 190.4284785 92.08757662 192.75390625 107.21484375 C194.30524903 124.77210409 191.7581231 139.98674974 180.25 153.75 C168.50029423 166.23685461 153.20662656 171.385012 136.42260742 172.11157227 C110.75913205 172.65470216 86.4429551 169.45043071 62.04003906 161.37426758 C51.49660228 157.95922544 44.14840628 157.20927761 33.75 161.375 C32.03813157 162.03301549 30.32462287 162.68678215 28.609375 163.3359375 C27.86655273 163.63032715 27.12373047 163.9247168 26.35839844 164.22802734 C17.60400132 167.09359708 9.42303268 166 0 166 C0 111.22 0 56.44 0 0 Z " fill="#c2b19b" transform="translate(0,0)"/>
<path d="M0 0 C0 102.63 0 205.26 0 311 C-41.58 311 -83.16 311 -126 311 C-126 285.70138173 -103.7596306 261.44538042 -89.08203125 242.34375 C-83.45112954 235.00200807 -77.99250971 227.53481581 -72.52685547 220.06982422 C-71.02268886 218.03075731 -69.49797302 216.00859822 -67.96875 213.98828125 C-47.95112792 188.00704215 -47.95112792 188.00704215 -42 157 C-43.96442457 151.215861 -47.83263764 147.67920136 -53.13720703 144.86694336 C-55.57388129 143.74045992 -58.02899765 142.67397944 -60.5 141.625 C-62.28722005 140.83896926 -64.07367553 140.05119784 -65.859375 139.26171875 C-66.73271484 138.87806152 -67.60605469 138.4944043 -68.50585938 138.09912109 C-84.32176185 131.12934888 -93.52289078 124.40284147 -100 108 C-104.44053248 93.67155783 -104.27111399 74.68723475 -98 61 C-97.72091797 60.37335449 -97.44183594 59.74670898 -97.15429688 59.10107422 C-93.06062487 50.01199249 -88.31746501 41.75489969 -82 34 C-81.33613281 33.17242188 -80.67226562 32.34484375 -79.98828125 31.4921875 C-64.32343494 13.01867189 -25.61388303 -12.80694151 0 0 Z " fill="#c2b19b" transform="translate(1920,1609)"/>
<path d="M0 0 C1.50554443 0.01244751 1.50554443 0.01244751 3.04150391 0.02514648 C40.81893039 0.87099962 73.6281733 26.06224603 98.875 52.12109375 C103.99013519 57.55753951 108.515186 63.43301409 112.9375 69.4375 C113.3607959 70.00533203 113.7840918 70.57316406 114.22021484 71.15820312 C123.33072132 83.45615142 127.11870983 93.43910407 127.25 108.625 C127.27900391 109.72392578 127.30800781 110.82285156 127.33789062 111.95507812 C127.42701554 123.45219275 123.443495 131.79666572 115.4296875 139.9765625 C109.54794602 145.24241482 103.46797245 145.80025533 95.9375 145.8125 C95.17566406 145.83699219 94.41382813 145.86148438 93.62890625 145.88671875 C81.13915655 145.94824461 69.47422007 140.61809024 58.125 135.9375 C28.63604884 124.11109009 8.75516336 126.93994771 -21.3125 135.6875 C-39.67506131 140.99626001 -60.58348775 144.49452991 -78.1875 134.875 C-92.4844802 125.54193132 -103.93921036 109.62249161 -108.375 93.125 C-110.10763495 83.82874709 -110.40755729 73.05057457 -106.0625 64.4375 C-97.79218852 53.08223106 -84.68551213 51.77695273 -71.76953125 49.50390625 C-70.38640747 49.25447266 -70.38640747 49.25447266 -68.9753418 49 C-67.15987346 48.67439538 -65.34234639 48.3600057 -63.52270508 48.05859375 C-56.65537143 46.83044883 -50.69743855 45.12952888 -45.71875 40.04296875 C-43.9982761 37.33646853 -42.74082148 34.73163104 -41.5625 31.75 C-41.13710938 30.69941406 -40.71171875 29.64882812 -40.2734375 28.56640625 C-39.5225107 26.6261083 -38.79400811 24.67677297 -38.1015625 22.71484375 C-35.26204443 14.86369763 -30.80556202 8.07279854 -23.08642578 4.31518555 C-15.46786745 1.01135959 -8.26171157 -0.08926641 0 0 Z " fill="#c2b19b" transform="translate(999.0625,86.5625)"/>
<path d="M0 0 C0.75951965 -0.00662659 1.51903931 -0.01325317 2.30157471 -0.02008057 C14.94077462 -0.08563267 23.90852109 0.8580465 33.390625 9.8984375 C40.88380901 18.65845478 41.21272289 30.43372806 40.5625 41.4375 C39.3832863 50.8712096 35.69887463 57.28719772 29.5625 64.4375 C28.86511719 65.25863281 28.16773438 66.07976562 27.44921875 66.92578125 C15.82995458 79.50830048 -0.10195931 87.48400047 -14.8046875 95.85449219 C-36.84543815 108.46309808 -58.69682838 121.15813078 -67.34765625 146.2734375 C-69.05333102 149.66033291 -71.29596271 150.99006327 -74.76953125 152.3515625 C-94.1609511 157.90941827 -114.36314589 156.59212941 -132.203125 146.94140625 C-160.21204385 130.25609317 -175.42119039 98.97736778 -183.4375 68.4375 C-185.29947478 60.58990997 -185.64510719 52.78310006 -185.75 44.75 C-185.77670776 43.44929565 -185.77670776 43.44929565 -185.80395508 42.12231445 C-185.79241295 32.77052525 -183.89318937 24.96632366 -177.33203125 18.12890625 C-169.24812528 10.91172834 -159.90568954 10.90346387 -149.50488281 11.296875 C-140.78881948 11.88974846 -132.33851031 14.14550646 -124 16.625 C-103.51795221 22.17400667 -83.42312404 15.58045643 -63.63214111 10.11120605 C-42.27792471 4.22630753 -22.22617515 0.12457267 0 0 Z " fill="#c2b19b" transform="translate(477.4375,1140.5625)"/>
<path d="M0 0 C0.78944 -0.00570007 1.57888 -0.01140015 2.39224243 -0.01727295 C4.05786832 -0.02666461 5.7235123 -0.03323352 7.38916016 -0.03710938 C9.87307522 -0.04671647 12.35612559 -0.07775416 14.83984375 -0.109375 C29.42902223 -0.20689964 43.59622861 1.50292623 57.5390625 5.953125 C58.37042725 6.21061523 59.20179199 6.46810547 60.05834961 6.73339844 C67.02792495 8.93898539 73.81510256 11.53743429 80.6015625 14.24609375 C86.24044688 16.49405847 91.91418117 18.64365192 97.6015625 20.765625 C98.70765869 21.1790918 99.81375488 21.59255859 100.95336914 22.01855469 C108.16796201 24.68164283 115.42247331 27.18687677 122.72265625 29.60546875 C124.5266173 30.20693197 126.33057234 30.80841321 128.13452148 31.40991211 C131.63732052 32.5767521 135.14634501 33.72134636 138.66040039 34.85375977 C147.36721546 37.71279995 155.64509918 40.98071446 163.7890625 45.203125 C164.55105957 45.59411377 165.31305664 45.98510254 166.09814453 46.38793945 C170.88893936 48.97204266 174.83340483 51.98608615 178.82202148 55.68896484 C180.61473072 57.37030682 180.61473072 57.37030682 183.3515625 58.828125 C186.08516513 60.54638951 186.89778835 62.44578442 188.5390625 65.203125 C190.0457479 66.42129617 191.55300782 67.63883158 193.0703125 68.84375 C195.02127328 70.64942647 196.18887852 72.76744728 197.39453125 75.1171875 C199.36339781 78.70549721 201.80278448 82.00844212 204.1484375 85.359375 C205.5390625 88.203125 205.5390625 88.203125 205.5390625 95.203125 C90.6990625 95.203125 -24.1409375 95.203125 -142.4609375 95.203125 C-142.4609375 88.44786915 -142.4609375 88.44786915 -140.34375 85.5546875 C-139.68052734 84.63623047 -139.68052734 84.63623047 -139.00390625 83.69921875 C-138.30201172 82.77302734 -138.30201172 82.77302734 -137.5859375 81.828125 C-137.12574219 81.18746094 -136.66554688 80.54679687 -136.19140625 79.88671875 C-135.00872867 78.27896285 -133.74074218 76.73469454 -132.4609375 75.203125 C-131.8009375 75.203125 -131.1409375 75.203125 -130.4609375 75.203125 C-130.23535156 74.64625 -130.00976562 74.089375 -129.77734375 73.515625 C-123.60209609 62.6677122 -109.50731722 55.06900373 -99.4609375 48.203125 C-90.63330347 42.15006232 -82.07651921 35.99272065 -73.8984375 29.078125 C-52.58370486 11.18273757 -28.13427611 0.16302111 0 0 Z " fill="#c2b19b" transform="translate(1178.4609375,1824.796875)"/>
<path d="M0 0 C101.31 0 202.62 0 307 0 C307 6.75606277 307 6.75606277 304.65625 10.609375 C304.15601318 11.44154541 303.65577637 12.27371582 303.14038086 13.13110352 C302.32839233 14.42745728 302.32839233 14.42745728 301.5 15.75 C300.94900635 16.64452881 300.3980127 17.53905762 299.83032227 18.46069336 C295.95037668 24.67734057 291.95348074 30.58064487 287 36 C286.19433594 36.92039063 285.38867188 37.84078125 284.55859375 38.7890625 C274.82097311 49.30625976 263.44276706 55.22413968 249.0222168 56.2019043 C215.29177611 57.26957358 187.53483016 47.18878061 160 28 C138.90359073 12.88429371 138.90359073 12.88429371 114 9 C109.88487103 9.87862811 105.89551476 11.07748843 101.875 12.3125 C99.63525502 12.95968902 97.39436753 13.6029375 95.15234375 14.2421875 C94.08226074 14.54866211 93.01217773 14.85513672 91.90966797 15.17089844 C90.94947754 15.44450195 89.98928711 15.71810547 89 16 C88.27570801 16.20657227 87.55141602 16.41314453 86.80517578 16.62597656 C62.66699662 23.19014475 27.48893958 21.65845325 5.29296875 9.51953125 C1.41034374 6.87445046 1.41034374 6.87445046 0 5 C0 3.35 0 1.7 0 0 Z " fill="#c2b19b" transform="translate(843,0)"/>
<path d="M0 0 C6.46858027 0 7.98480456 0.98899883 12.25 5.1875 C12.81356201 5.72922852 13.37712402 6.27095703 13.95776367 6.82910156 C35.20613207 27.73780867 41.48402379 50.83079862 41.96875 80.1015625 C42.1235463 100.2306105 39.52622046 119.31363025 35.8828125 139.08984375 C35.61368042 140.55176147 35.61368042 140.55176147 35.33911133 142.04321289 C35.00173201 143.85742834 34.65836695 145.67054704 34.30737305 147.48217773 C32.37884879 157.66561785 31.83039215 167.71108904 31.875 178.0625 C31.87790039 179.74218872 31.87790039 179.74218872 31.88085938 181.45581055 C31.92087343 189.41694087 32.16111213 197.35902128 32.5 205.3125 C32.84097478 213.37537265 33.1292558 221.42953795 33.1875 229.5 C33.20039062 230.31766846 33.21328125 231.13533691 33.2265625 231.9777832 C33.24234827 241.53902546 31.93224313 251.85851019 25.06640625 259.015625 C16.47633638 266.77033027 13.97792078 265 0 265 C0 177.55 0 90.1 0 0 Z " fill="#c2b19b" transform="translate(0,216)"/>
<path d="M0 0 C38.28 0 76.56 0 116 0 C116 14.60604298 109.87484168 24.16980542 99.875 34.4375 C92.49463471 41.78249613 85.56543152 44.06187278 75.3125 44.3125 C57.83051839 43.9591408 44.61569091 36.76384306 31.0715332 26.4375 C24.67888911 21.61624602 17.89653869 17.47827716 11.05615234 13.32739258 C10.19844238 12.80685303 9.34073242 12.28631348 8.45703125 11.75 C7.69366455 11.29109375 6.93029785 10.8321875 6.14379883 10.359375 C5.43634521 9.91078125 4.7288916 9.4621875 4 9 C3.24807373 8.57203125 2.49614746 8.1440625 1.72143555 7.703125 C0.86932495 6.86007812 0.86932495 6.86007812 0 6 C0 4.02 0 2.04 0 0 Z " fill="#c2b19b" transform="translate(1277,0)"/>
</svg>
